P2
9 9
255
0 32 64 96 128 160 192 224 255 
32 64 96 128 160 192 224 255 224 
64 96 128 160 192 224 255 224 192 
96 128 160 192 224 255 224 192 160 
128 160 192 224 255 224 192 160 128 
160 192 224 255 224 192 160 128 96 
192 224 255 224 192 160 128 96 64 
224 255 224 192 160 128 96 64 32 
255 224 192 160 128 96 64 32 0 
